<?xml version="1.0" encoding="UTF-8"?>
<svg id="Capa_1" xmlns="http://www.w3.org/2000/svg" viewBox="0 0 201 190">
  <defs>
    <style>
      .cls-1 {
        fill: #fff;
      }
    </style>
  </defs>
  <path class="cls-1" d="M147.92,93.93c-.03,29.12-23.74,52.89-52.71,52.86-29.41-.03-53.03-23.65-52.97-52.97.06-29.09,23.74-52.79,52.71-52.75,29.3.04,53.01,23.7,52.97,52.85ZM141.18,93.97c0-25.42-20.67-46.11-46.13-46.16-25.25-.04-46.05,20.71-46.1,45.94-.05,25.41,20.35,45.93,45.39,46.31,25.77.38,46.75-20.37,46.84-46.08Z"/>
  <path class="cls-1" d="M122.29,93.98c0,4.1.14,8.21-.03,12.3-.3,7.43-6.68,14.03-14.08,14.8-.92.1-1.84.14-2.76.14-7.11,0-14.23.06-21.34-.02-6.49-.08-11.36-3.04-14.49-8.75-1.31-2.38-1.83-4.98-1.84-7.68-.01-7.22-.03-14.45,0-21.67.04-8.02,5.27-14.46,13.01-16.12,1.2-.26,2.42-.3,3.64-.3,7.22,0,14.45-.01,21.67,0,7.58.02,13.9,4.93,15.79,12.28.34,1.32.48,2.67.47,4.03-.01,3.67,0,7.33,0,11-.02,0-.03,0-.05,0ZM73.09,93.93c0,3.58,0,7.17,0,10.75.02,6.24,4.78,11.16,11.03,11.23,7.28.08,14.55.08,21.83,0,6.31-.07,11.11-5.03,11.12-11.35.01-7.03,0-14.07,0-21.1,0-.85-.08-1.68-.25-2.51-1.06-5.33-5.57-9.01-11.12-9.02-7.03-.02-14.07.07-21.1-.03-6.53-.09-11.75,5.21-11.55,11.59.11,3.47.02,6.95.02,10.43Z"/>
  <path class="cls-1" d="M108.7,93.54c-.02,7.45-5.97,13.32-13.47,13.3-7.23-.02-13.11-6.07-13.08-13.45.03-7.25,6-13.13,13.31-13.12,7.33,0,13.26,5.95,13.24,13.27ZM103.97,93.56c.03-4.58-3.79-8.51-8.31-8.54-4.83-.04-8.73,3.71-8.78,8.4-.04,4.75,3.8,8.67,8.52,8.69,4.69.02,8.53-3.82,8.57-8.55Z"/>
  <path class="cls-1" d="M112.67,79.42c-.04,1.72-1.51,3.11-3.24,3.08-1.72-.03-3.16-1.53-3.1-3.22.06-1.72,1.55-3.14,3.24-3.08,1.74.06,3.13,1.51,3.09,3.22Z"/>
</svg>