<?xml version="1.0" encoding="UTF-8"?>
<svg id="Capa_1" xmlns="http://www.w3.org/2000/svg" viewBox="0 0 201 190">
  <defs>
    <style>
      .cls-1 {
        fill: #fff;
      }
    </style>
  </defs>
  <path class="cls-1" d="M96.3,34.24c32.15-.11,58.85,26.66,57.79,59.69-.99,30.55-26.35,56.11-58.4,55.8-31.76-.31-57.87-26.68-57.14-59.13.69-30.69,25.96-56.37,57.75-56.36ZM96.33,41.6c-27.92.02-50.41,22.6-50.41,50.59,0,27.62,22.72,50.18,50.49,50.15,27.82-.03,50.33-22.63,50.32-50.5-.02-27.67-22.68-50.26-50.4-50.24Z"/>
  <path class="cls-1" d="M100.68,106.36c0,4.51,0,9.02,0,13.53,0,1.18-.12,1.3-1.36,1.3-3.06,0-6.11,0-9.17,0-1.29,0-1.44-.15-1.44-1.42,0-8.99-.01-17.98.02-26.98,0-.86-.21-1.13-1.08-1.08-1.3.08-2.61,0-3.92.02-.68,0-.98-.31-.98-.97,0-2.73,0-5.46,0-8.19,0-.71.37-.93,1.01-.92,1.36.01,2.73-.03,4.09.02.65.02.87-.17.86-.84-.04-2.31-.02-4.63-.01-6.94.02-6.66,4.53-11.15,11.21-11.15,2.91,0,5.82,0,8.72,0,1.08,0,1.25.18,1.26,1.23,0,2.58-.02,5.16.01,7.75.01.87-.35,1.15-1.17,1.14-1.72-.03-3.44-.02-5.16,0-1.78.01-2.86,1.04-2.89,2.79-.03,1.75.02,3.5-.02,5.25-.01.65.26.79.85.79,2.37-.02,4.75-.01,7.12,0,.99,0,1.18.18,1.1,1.14-.22,2.63-.47,5.26-.68,7.89-.06.8-.42,1.06-1.19,1.05-2.02-.04-4.04-.01-6.05-.01q-1.13,0-1.13,1.18c0,4.48,0,8.96,0,13.44Z"/>
</svg>