<?xml version="1.0" encoding="UTF-8"?>
<svg id="Capa_1" xmlns="http://www.w3.org/2000/svg" viewBox="0 0 201 190">
  <defs>
    <style>
      .cls-1 {
        fill: #fff;
      }
    </style>
  </defs>
  <path class="cls-1" d="M97.08,142.72c-28.41-.1-50.44-23.32-50.25-50.55.19-27.49,22.69-49.98,50.16-49.91,28.02.07,50.45,22.54,50.38,50.48-.07,27.5-22.76,50.04-50.3,49.98ZM96.55,48.65c-24.51.52-43.77,20.43-43.3,44.75.47,24.13,20.58,43.38,44.82,42.91,24.03-.46,43.39-20.57,42.87-44.71-.52-24.44-20.69-43.23-44.4-42.95Z"/>
  <path class="cls-1" d="M123.49,66.05c-2.42,2.61-4.68,5.06-6.94,7.5-4.33,4.68-8.66,9.37-13.03,14.02-.57.61-.38.94.02,1.46,7.34,9.79,14.67,19.59,22,29.39.09.12.17.25.26.38-.22.26-.49.14-.73.14-5.4,0-10.8,0-16.2.01-.51,0-.83-.13-1.15-.56-4.67-6.28-9.36-12.53-14.05-18.79q-.57-.76-1.2-.08c-5.81,6.27-11.62,12.54-17.42,18.82-.4.43-.8.63-1.4.62-1.73-.04-3.46-.01-5.19-.01-.11-.33.17-.43.3-.58,6.98-7.54,13.96-15.08,20.97-22.61.47-.5.45-.81.05-1.34-7.01-9.33-13.99-18.68-20.98-28.02-.06-.07-.11-.15-.17-.24.31-.19.6-.11.87-.11,5.35,0,10.69,0,16.04-.02.58,0,.93.17,1.27.64,4.25,5.72,8.53,11.41,12.78,17.13.47.64.71.55,1.18.04,5.32-5.77,10.67-11.52,15.99-17.29.35-.38.7-.52,1.21-.51,1.77.02,3.54,0,5.5,0ZM116.75,114.38c-.25-.37-.39-.58-.55-.78-2.88-3.84-5.76-7.68-8.63-11.53-7.73-10.33-15.46-20.66-23.18-31-.26-.35-.54-.49-.97-.48-1.6.02-3.2,0-4.8.01-.24,0-.57-.15-.69.14-.09.22.19.4.32.58,5.95,7.96,11.91,15.91,17.86,23.86,4.64,6.2,9.27,12.4,13.91,18.6.19.26.33.6.74.6,1.93,0,3.86,0,5.99,0Z"/>
</svg>